<svg xmlns="http://www.w3.org/2000/svg" x="0px" y="0px"
     width="64" height="64"
     viewBox="0 0 172 172"
     style=" fill:#000000;">
    <g fill="none" fill-rule="nonzero" stroke="none" stroke-width="1" stroke-linecap="butt" stroke-linejoin="miter"
       stroke-miterlimit="10" stroke-dasharray="" stroke-dashoffset="0" font-family="none" font-weight="none"
       font-size="none" text-anchor="none" style="mix-blend-mode: normal">
        <path d="M0,172v-172h172v172z" fill="none"></path>
        <g fill="#ffffff">
            <path d="M130.34375,28.21875c-20.70908,0 -37.59921,16.87452 -37.625,37.57776l-23.46314,29.94568c-0.99148,1.26611 -1.13572,3.00035 -0.36703,4.41286c0.7687,1.41251 2.3033,2.23311 3.90487,2.08806l1.20203,-0.11023c11.06246,0.04955 20.06702,9.07462 20.06702,20.14838c-0.00124,0.16398 0.00752,0.32787 0.02624,0.49078c-0.08594,0.29493 -0.1379,0.59872 -0.15485,0.90546c-0.55745,10.3686 -9.22726,18.76001 -20.02765,18.76001c-6.32522,0 -11.88156,-2.79813 -15.5686,-7.26727c-0.90538,-1.14579 -2.35958,-1.71243 -3.80149,-1.48126c-1.44191,0.23117 -2.6461,1.22398 -3.14793,2.59538c-0.50183,1.37139 -0.22283,2.90695 0.72933,4.01417c5.18171,6.28086 13.06392,10.20148 21.7887,10.20148c14.30295,0 26.02434,-10.73375 27.77521,-24.40796c8.7841,-6.88002 19.61947,-15.42407 28.72266,-22.62854c20.69665,-0.03361 37.56464,-16.91548 37.56464,-37.61975c0,-20.72491 -16.90009,-37.625 -37.625,-37.625zM130.34375,36.28125c16.36259,0 29.5625,13.19991 29.5625,29.5625c0,16.36259 -13.19991,29.5625 -29.5625,29.5625h-1.34375c-0.90806,0.00049 -1.78936,0.30751 -2.50116,0.87134c-7.83058,6.19921 -16.90461,13.33907 -25.12183,19.79144c-2.39701,-10.50115 -10.68318,-18.79893 -21.17194,-21.22968l19.71796,-25.16644c0.55579,-0.70928 0.85793,-1.58431 0.85822,-2.48541v-1.34375c0,-16.36259 13.19991,-29.5625 29.5625,-29.5625zM130.34375,43c-12.56851,0 -22.84375,10.27525 -22.84375,22.84375c0,12.5685 10.27524,22.84375 22.84375,22.84375c12.56851,0 22.84375,-10.27525 22.84375,-22.84375c0,-12.5685 -10.27524,-22.84375 -22.84375,-22.84375zM130.34375,51.0625c8.21121,0 14.78125,6.57004 14.78125,14.78125c0,8.21121 -6.57004,14.78125 -14.78125,14.78125c-8.21122,0 -14.78125,-6.57004 -14.78125,-14.78125c0,-8.21121 6.57003,-14.78125 14.78125,-14.78125zM15.0647,84.2652c-4.71191,-0.03971 -9.25477,2.67711 -11.23816,7.25415c-2.63452,6.07966 0.15936,13.27315 6.26209,15.91766l58.97015,25.92493c0.06832,0.02991 0.13746,0.05791 0.20734,0.08398c1.35077,0.50654 2.89326,0.92908 4.64014,0.92908c4.59823,0 9.1335,-2.75764 11.09381,-7.42212c2.61749,-6.07112 -0.16709,-13.24286 -6.25421,-15.88879l-58.99115,-25.80157c-0.0035,-0.00175 -0.007,-0.0035 -0.0105,-0.00525c-1.51993,-0.65864 -3.10887,-0.97883 -4.6795,-0.99207zM14.99121,92.34082c0.52456,-0.00032 1.05013,0.10013 1.54584,0.31494l58.97803,25.7937c0.00437,0.00176 0.00874,0.00351 0.01312,0.00525c1.95978,0.84924 2.92997,3.33179 2.07074,5.31464c-0.008,0.01744 -0.01587,0.03494 -0.02362,0.05249c-0.73522,1.76444 -2.09746,2.49066 -3.66907,2.49066c-0.39663,0 -0.99916,-0.11774 -1.77942,-0.4068l-58.81268,-25.85931c-0.00699,-0.00264 -0.01399,-0.00527 -0.021,-0.00787c-1.95978,-0.84918 -2.92735,-3.33179 -2.06812,-5.31464c0.42462,-0.97989 1.25638,-1.71191 2.23084,-2.09174c0.48723,-0.18991 1.01078,-0.291 1.53534,-0.29132z"></path>
        </g>
    </g>
</svg>